Source: Inglourious.Basterds.720p.BluRay.x264-METiS

Subs: English hardcoded when needed.

Subs: Arabic, Bosnian, Brazilian, Bulgarian, Danish, Dutch, English, French, Greek, Hungarian, Icelandic, Italian, Persian, Polish, Portuguese, Romanian, Servian, Spanish and Swedish ( External).

Sample and Screens included.

General
Complete name                    : Inglourious Basterds-720p MP4 AAC BRRip 2009-CC.mp4
Format                           : MPEG-4
Format profile                   : Base Media
Codec ID                         : isom
File size                        : 2.41 GiB
Duration                         : 2h 32mn
Overall bit rate                 : 2 254 Kbps
Encoded date                     : UTC 2012-03-17 08:51:05

Video
ID                               : 1
Format                           : AVC
Format/Info                      : Advanced Video Codec
Format profile                   : High@L3.1
Format settings, CABAC           : Yes
Format settings, ReFrames        : 5 frames
Codec ID                         : avc1
Codec ID/Info                    : Advanced Video Coding
Duration                         : 2h 32mn
Bit rate mode                    : Variable
Bit rate                         : 1 865 Kbps
Nominal bit rate                 : 1 878 Kbps
Maximum bit rate                 : 55.3 Mbps
Width                            : 1 280 pixels
Height                           : 528 pixels
Display aspect ratio             : 2.35:1
Frame rate mode                  : Variable
Frame rate                       : 23.976 fps
Minimum frame rate               : 15.873 fps
Maximum frame rate               : 24.390 fps
Resolution                       : 24 bits
Colorimetry                      : 4:2:0
Scan type                        : Progressive
Bits/(Pixel*Frame)               : 0.115
Stream size                      : 1.99 GiB (83%)
Writing library                  : x264 core 112


Audio
ID                               : 2
Format                           : AAC
Format/Info                      : Advanced Audio Codec
Format version                   : Version 4
Format profile                   : LC
Format settings, SBR             : No
Codec ID                         : 40
Duration                         : 2h 32mn
Bit rate mode                    : Variable
Bit rate                         : 384 Kbps
Maximum bit rate                 : 802 Kbps
Channel(s)                       : 6 channels
Channel positions                : Front: L C R, Rear: L R, LFE
Sampling rate                    : 48.0 KHz
Resolution                       : 16 bits
Stream size                      : 420 MiB (17%)